nColumns=19
nRows=39
DataType=double
version=3
OpenSimVersion=4.1
endheader
time	ground_force_calcn_l_vx	ground_force_calcn_l_vy	ground_force_calcn_l_vz	ground_force_calcn_l_px	ground_force_calcn_l_py	ground_force_calcn_l_pz	ground_force_calcn_l_mx	ground_force_calcn_l_my	ground_force_calcn_l_mz	ground_force_calcn_r_vx	ground_force_calcn_r_vy	ground_force_calcn_r_vz	ground_force_calcn_r_px	ground_force_calcn_r_py	ground_force_calcn_r_pz	ground_force_calcn_r_mx	ground_force_calcn_r_my	ground_force_calcn_r_mz
3.01251	-1.79715	337.768	-37.0111	-0.257191	-2.83179e-17	0.193373	0.03486	-6.55182	0.717919	-6.87047	372.264	33.7942	-0.236684	-2.62025e-17	-0.164787	-0.0509138	2.75867	0.250433
3.02248	-1.68551	337.723	-36.9836	-0.257794	-2.83845e-17	0.193545	0.0327643	-6.56491	0.718916	-6.85052	372.412	33.8754	-0.236895	-2.62257e-17	-0.164914	-0.0508192	2.76267	0.251298
3.03246	-1.56258	337.663	-36.8958	-0.258447	-2.84567e-17	0.193753	0.0304849	-6.58758	0.719814	-6.84112	372.498	33.9591	-0.237119	-2.625e-17	-0.16506	-0.0510158	2.7778	0.253241
3.04243	-1.41542	337.607	-36.753	-0.259113	-2.85304e-17	0.194009	0.0277494	-6.61879	0.720543	-6.84263	372.555	34.0487	-0.23735	-2.62749e-17	-0.165224	-0.0514264	2.79998	0.255896
3.05241	-1.25382	337.558	-36.559	-0.259775	-2.86037e-17	0.194309	0.0247325	-6.65858	0.721153	-6.86039	372.619	34.1357	-0.237591	-2.63008e-17	-0.165402	-0.0520013	2.82442	0.258746
3.06238	-1.09634	337.501	-36.334	-0.260448	-2.86782e-17	0.194628	0.0217706	-6.7019	0.7215	-6.89442	372.707	34.1993	-0.237879	-2.63322e-17	-0.165576	-0.0525635	2.84154	0.260738
3.07236	-0.950378	337.412	-36.1137	-0.261122	-2.87529e-17	0.194942	0.018994	-6.74343	0.721761	-6.93305	372.829	34.2381	-0.238215	-2.63693e-17	-0.165738	-0.0529611	2.84802	0.261543
3.08233	-0.821209	337.268	-35.9112	-0.26177	-2.88245e-17	0.195248	0.016517	-6.78348	0.722282	-6.96479	373.002	34.2445	-0.238581	-2.64098e-17	-0.165889	-0.0532519	2.85193	0.26183
3.09231	-0.723436	337.062	-35.7311	-0.262365	-2.88901e-17	0.195536	0.0146437	-6.82275	0.723264	-6.99875	373.229	34.2295	-0.238954	-2.64513e-17	-0.166026	-0.0535072	2.85343	0.261693
3.10228	-0.661823	336.775	-35.5645	-0.26291	-2.89502e-17	0.1958	0.0134718	-6.85525	0.723937	-7.02616	373.505	34.1988	-0.239322	-2.64925e-17	-0.166139	-0.0536141	2.85008	0.260959
3.11226	-0.630447	336.415	-35.4271	-0.263425	-2.9007e-17	0.196029	0.0128918	-6.87925	0.724436	-7.04428	373.839	34.1638	-0.239675	-2.65321e-17	-0.166239	-0.0536101	2.84507	0.260001
3.12223	-0.633956	336.003	-35.3254	-0.263925	-2.9062e-17	0.196221	0.0130107	-6.89579	0.724983	-7.05899	374.234	34.1353	-0.24001	-2.65697e-17	-0.166343	-0.0535721	2.84014	0.259059
3.13221	-0.674284	335.572	-35.2568	-0.264382	-2.91121e-17	0.196375	0.0138841	-6.90972	0.725968	-7.06075	374.677	34.1298	-0.240332	-2.66058e-17	-0.166453	-0.0533945	2.83337	0.258095
3.14218	-0.748343	335.153	-35.236	-0.264771	-2.91546e-17	0.196473	0.0154427	-6.91618	0.727127	-7.03863	375.147	34.1558	-0.240653	-2.66416e-17	-0.166571	-0.0531165	2.83101	0.257754
3.15216	-0.851266	334.776	-35.27	-0.26509	-2.91894e-17	0.196513	0.0175771	-6.9125	0.728262	-7.00043	375.627	34.2089	-0.24099	-2.66788e-17	-0.166702	-0.0529571	2.84156	0.258785
3.16213	-0.973608	334.458	-35.351	-0.265364	-2.92192e-17	0.196502	0.0200937	-6.90266	0.729587	-6.9493	376.111	34.2788	-0.241363	-2.67195e-17	-0.166851	-0.0529956	2.86823	0.261411
3.17211	-1.10056	334.215	-35.4749	-0.265587	-2.92432e-17	0.196453	0.0226794	-6.88723	0.731038	-6.87708	376.582	34.3635	-0.241779	-2.67647e-17	-0.167004	-0.0530696	2.90604	0.265179
3.18208	-1.2307	334.056	-35.6311	-0.265755	-2.92612e-17	0.196386	0.0253173	-6.87202	0.732983	-6.79423	377.03	34.4558	-0.242243	-2.68149e-17	-0.167166	-0.0532575	2.9554	0.270087
3.19206	-1.35608	333.979	-35.7984	-0.265897	-2.92759e-17	0.196328	0.0278762	-6.86542	0.735888	-6.71385	377.455	34.5366	-0.242741	-2.68684e-17	-0.167344	-0.0537057	3.01935	0.276267
3.20203	-1.47105	333.971	-35.9577	-0.266044	-2.9291e-17	0.196296	0.0302446	-6.86638	0.739286	-6.63336	377.851	34.5944	-0.243254	-2.69235e-17	-0.167537	-0.0542414	3.08971	0.282881
3.21201	-1.57061	333.997	-36.0887	-0.266216	-2.93088e-17	0.196307	0.032352	-6.8798	0.74337	-6.55766	378.205	34.6299	-0.243756	-2.69775e-17	-0.167742	-0.0547431	3.15724	0.289089
3.22199	-1.65312	334.03	-36.1744	-0.266403	-2.93279e-17	0.196372	0.0341958	-6.90959	0.748286	-6.50363	378.505	34.6589	-0.244226	-2.70281e-17	-0.167945	-0.0552545	3.21575	0.29446
3.23196	-1.70934	334.053	-36.2092	-0.266603	-2.93485e-17	0.196486	0.0355556	-6.94857	0.753179	-6.47101	378.749	34.6951	-0.244644	-2.70734e-17	-0.168127	-0.0557152	3.26102	0.298724
3.24194	-1.74121	334.044	-36.1982	-0.266835	-2.93728e-17	0.196636	0.03645	-6.99277	0.757761	-6.4517	378.95	34.7472	-0.245004	-2.71124e-17	-0.168281	-0.056119	3.29623	0.302242
3.25191	-1.75669	333.985	-36.1504	-0.267125	-2.94036e-17	0.1968	0.0370149	-7.03732	0.761717	-6.44798	379.128	34.8314	-0.245294	-2.71439e-17	-0.168404	-0.0564084	3.3167	0.304713
3.26189	-1.76312	333.874	-36.074	-0.267464	-2.94403e-17	0.196959	0.0373581	-7.07434	0.76436	-6.46084	379.285	34.9466	-0.245522	-2.71689e-17	-0.168495	-0.0565401	3.31919	0.305824
3.27186	-1.75141	333.714	-35.9879	-0.267831	-2.94808e-17	0.197086	0.0372217	-7.09224	0.764832	-6.48058	379.421	35.0823	-0.245679	-2.71864e-17	-0.168562	-0.0565104	3.30854	0.305916
3.28184	-1.72473	333.508	-35.9036	-0.26822	-2.95243e-17	0.197173	0.0366614	-7.08912	0.763176	-6.50325	379.528	35.226	-0.245764	-2.71958e-17	-0.16861	-0.0564693	3.29553	0.305876
3.29181	-1.68158	333.269	-35.8379	-0.268613	-2.95686e-17	0.197218	0.035699	-7.07513	0.760822	-6.52527	379.601	35.3662	-0.245794	-2.71992e-17	-0.16864	-0.056454	3.28415	0.305974
3.30179	-1.62487	333.01	-35.7975	-0.268969	-2.96084e-17	0.19724	0.0344734	-7.06517	0.759481	-6.54119	379.623	35.4997	-0.245806	-2.72006e-17	-0.168653	-0.0563061	3.26776	0.305579
3.31176	-1.55227	332.743	-35.7749	-0.269249	-2.96392e-17	0.197263	0.0329578	-7.06477	0.759571	-6.5576	379.593	35.6175	-0.245803	-2.72006e-17	-0.168653	-0.056001	3.24167	0.304168
3.32174	-1.47303	332.469	-35.7652	-0.269462	-2.96623e-17	0.197288	0.0313259	-7.07039	0.760594	-6.58607	379.519	35.6978	-0.245791	-2.72003e-17	-0.168633	-0.0555409	3.20052	0.301043
3.33171	-1.39346	332.194	-35.7762	-0.26961	-2.96782e-17	0.197298	0.0296642	-7.07181	0.76161	-6.6204	379.413	35.7173	-0.245782	-2.72003e-17	-0.168599	-0.0551001	3.15777	0.297267
3.34169	-1.32131	331.917	-35.7959	-0.269711	-2.9689e-17	0.197289	0.0281259	-7.06528	0.761961	-6.64711	379.284	35.671	-0.245776	-2.72006e-17	-0.168557	-0.0547813	3.12582	0.293978
3.35166	-1.27649	331.636	-35.8158	-0.269774	-2.96959e-17	0.197265	0.0271483	-7.0532	0.761727	-6.66967	379.127	35.5725	-0.245782	-2.72019e-17	-0.168514	-0.0546358	3.10569	0.291399
3.36164	-1.27205	331.368	-35.8151	-0.269807	-2.96997e-17	0.197233	0.0270153	-7.03745	0.760625	-6.68319	378.93	35.432	-0.245795	-2.7204e-17	-0.168464	-0.0545557	3.09325	0.289235
3.37161	-1.314	331.144	-35.7978	-0.269778	-2.9697e-17	0.197189	0.0278469	-7.01776	0.758643	-6.68034	378.714	35.264	-0.245806	-2.72057e-17	-0.168409	-0.0544369	3.08608	0.28736
3.38159	-1.40284	330.984	-35.7617	-0.269678	-2.96865e-17	0.197146	0.0296743	-7.00129	0.756465	-6.67384	378.491	35.0765	-0.24582	-2.72076e-17	-0.168354	-0.0543952	3.0849	0.285891
3.39156	-1.52496	330.917	-35.7078	-0.269504	-2.96678e-17	0.197106	0.0322161	-6.99088	0.754357	-6.66621	378.267	34.8884	-0.245832	-2.72093e-17	-0.168303	-0.0543925	3.08645	0.284669
